<svg width="94" height="35" viewBox="0 0 94 35" fill="none" xmlns="http://www.w3.org/2000/svg">
<path d="M18.6798 35.0001C18.248 34.5919 17.8858 34.1109 17.4957 33.659C16.4649 32.4636 15.448 31.2683 14.4311 30.0584C13.2192 28.6444 12.0073 27.2304 10.8094 25.8164C9.83426 24.6794 8.87309 23.5424 7.89799 22.42C7.77262 22.2742 7.73083 22.1284 7.73083 21.9535C7.73083 20.8019 7.74476 19.6503 7.73083 18.4987C7.73083 18.2363 7.81441 18.1488 8.06515 18.1488C9.31885 18.1634 10.5586 18.1488 11.8123 18.1488C12.2302 18.1488 12.2302 18.1488 12.2302 17.7261C12.2302 14.6649 12.2302 11.6037 12.2302 8.54247C12.2302 8.09058 12.2302 8.09058 12.662 8.09058C14.668 8.09058 16.6739 8.09058 18.6937 8.10515C18.6798 17.0555 18.6798 26.0205 18.6798 35.0001Z" fill="white"/>
<path d="M0.0696498 0C0.403969 0.510202 0.835798 0.93294 1.22584 1.39941C2.75813 3.20698 4.30436 5.01455 5.85059 6.82212C7.03463 8.20696 8.20475 9.57721 9.3888 10.9475C9.87635 11.516 10.35 12.0699 10.8375 12.6384C10.935 12.755 10.9629 12.8862 10.9629 13.0466C10.9629 14.2128 10.9629 15.3789 10.9629 16.5305C10.9629 16.7783 10.8793 16.8658 10.6425 16.8658C9.3888 16.8512 8.12117 16.8658 6.86747 16.8658C6.4635 16.8658 6.4635 16.8658 6.4635 17.2885C6.4635 20.3643 6.4635 23.4255 6.4635 26.5013C6.4635 26.9386 6.4635 26.9386 6.04561 26.9386C4.15113 26.9386 2.27058 26.9386 0.376109 26.9386C0 26.9386 0 26.9386 0 26.5451C0 17.7842 0 9.02328 0 0.262389C0 0.174926 0 0.0874631 0.01393 0C0.0278599 0 0.0417899 0 0.0696498 0Z" fill="white"/>
<path d="M34.2402 13.1635C33.2372 12.0264 31.9417 11.4434 30.3537 11.4434C28.9886 11.4434 27.8463 11.8953 26.9409 12.7699V11.7786H24.4056V25.1896H26.9409V18.4841C26.9409 16.8369 27.1777 15.6999 27.6513 15.1022C28.2364 14.3588 29.0582 13.9944 30.1726 13.9944C31.0641 13.9944 31.7467 14.2859 32.276 14.869C32.5546 15.1751 32.7497 15.5833 32.8611 16.0643C32.9865 16.5745 33.0422 17.2888 33.0422 18.1926V25.1896H35.5774V17.9448C35.5774 16.8078 35.4799 15.8602 35.271 15.1168C35.062 14.3588 34.7138 13.7028 34.2402 13.1635Z" fill="white"/>
<path d="M43.9633 11.4434C42.8629 11.4434 41.8321 11.7495 40.8848 12.3326C39.8958 12.9594 39.1018 13.8486 38.5307 14.9565C38.0013 16.0206 37.7227 17.1868 37.7227 18.4404C37.7227 20.2771 38.2521 21.8806 39.3107 23.2072C40.5366 24.7523 42.1385 25.5249 44.1026 25.5249C45.3145 25.5249 46.415 25.2188 47.3901 24.6211C48.3652 24.0235 49.1871 23.1488 49.8139 22.0118L49.9671 21.7203L47.6966 20.7145L47.5712 20.9331C46.7911 22.3617 45.6489 23.0614 44.0887 23.0614C43.3365 23.0614 42.6678 22.8573 42.0828 22.4637C41.442 22.041 40.9545 21.4142 40.6341 20.6124C40.5087 20.3063 40.4112 19.9856 40.3555 19.6357H50.0786L50.0925 19.3588C50.1064 19.0527 50.1064 18.834 50.1064 18.7174C50.1064 16.6037 49.5353 14.8544 48.3931 13.4987C47.2369 12.1431 45.7464 11.4434 43.9633 11.4434ZM47.5294 17.3034H40.3694C40.5644 16.3121 40.9545 15.4958 41.5535 14.8982C42.2221 14.2276 43.0161 13.8923 43.9773 13.8923C44.6738 13.8923 45.3145 14.0964 45.8717 14.4754C46.4707 14.8982 46.9443 15.525 47.2508 16.3267C47.3762 16.6037 47.4597 16.939 47.5294 17.3034Z" fill="white"/>
<path d="M56.1098 22.8863C55.6362 22.8863 55.0094 22.6968 55.0094 21.0496V14.2274H57.0432V11.7785H55.0094V7.91553L52.4741 7.97384V11.7785H51.095V14.2274H52.4741V21.0496C52.4741 23.9359 53.5746 25.3936 55.7198 25.3936C56.1098 25.3936 57.3775 25.3498 57.3775 25.3498V22.8863C57.3914 22.8863 56.2909 22.8863 56.1098 22.8863Z" fill="white"/>
<path d="M64.4966 11.7637C63.3264 11.7637 62.3513 12.1135 61.5852 12.7987V11.7782H59.0639V25.1893H61.5991V18.7024C61.5991 17.5508 61.6827 16.6762 61.8499 16.0931C62.017 15.5392 62.2956 15.1018 62.7135 14.7812C63.2011 14.4021 63.8418 14.1981 64.608 14.1981C64.7473 14.1981 64.9145 14.1981 65.1373 14.2126L65.4299 14.2272V11.822L65.1791 11.7928C64.9562 11.7782 64.7334 11.7637 64.4966 11.7637Z" fill="white"/>
<path d="M76.8933 13.076C75.7511 11.9973 74.3999 11.4434 72.8676 11.4434C71.2517 11.4434 69.803 12.041 68.5632 13.2218C67.1284 14.6066 66.3901 16.3704 66.3901 18.4987C66.3901 19.7669 66.6827 20.9477 67.2538 22.0118C67.8389 23.1343 68.6747 24.0089 69.7194 24.6357C70.7084 25.2334 71.7671 25.5395 72.8676 25.5395C74.4277 25.5395 75.7789 25.0001 76.8933 23.936V25.2042H79.4286V11.7932H76.8933V13.076ZM72.9512 23.0905C71.8228 23.0905 70.8895 22.6969 70.1234 21.8806C69.3294 21.0497 68.9254 19.8981 68.9254 18.4841C68.9254 17.2742 69.2179 16.2684 69.8169 15.4812C70.6109 14.4171 71.6139 13.8923 72.8815 13.8923C74.0795 13.8923 75.0267 14.2859 75.7789 15.1022C76.559 15.9477 76.9491 17.0702 76.9491 18.4696C76.9491 19.694 76.6565 20.7144 76.0854 21.5016C75.2914 22.5658 74.2745 23.0905 72.9512 23.0905Z" fill="white"/>
<path d="M90.7677 11.7781L86.9231 21.0783L83.2038 11.7781H80.4735L85.5718 24.329L82.4097 31.9529H85.0425L93.4841 11.7781H90.7677Z" fill="white"/>
</svg>
